<?xml version="1.0" encoding="UTF-8" standalone="no" ?>
<!DOCTYPE svg PUBLIC "-//W3C//DTD SVG 1.1//EN" "http://www.w3.org/Graphics/SVG/1.1/DTD/svg11.dtd">
<svg xmlns="http://www.w3.org/2000/svg" xmlns:xlink="http://www.w3.org/1999/xlink" version="1.1" width="1080" height="1080" viewBox="0 0 1080 1080" xml:space="preserve">
<desc>Created with Fabric.js 5.2.4</desc>
<defs>
</defs>
<g transform="matrix(1 0 0 1 540 540)" id="15f901f0-20df-4a32-a834-8e1f64f37db0"  >
<rect style="stroke: none; stroke-width: 1; stroke-dasharray: none; stroke-linecap: butt; stroke-dashoffset: 0; stroke-linejoin: miter; stroke-miterlimit: 4; fill: rgb(255,255,255); fill-rule: nonzero; opacity: 1; visibility: hidden;" vector-effect="non-scaling-stroke"  x="-540" y="-540" rx="0" ry="0" width="1080" height="1080" />
</g>
<g transform="matrix(1 0 0 1 540 540)" id="29227a19-5bc2-4ded-a0dd-cb799f5a44b6"  >
</g>
<g transform="matrix(7.94 0 0 7.94 540.06 608)"  >
<polyline style="stroke: #fff; stroke-width: 1; stroke-dasharray: none; stroke-linecap: round; stroke-dashoffset: 0; stroke-linejoin: round; stroke-miterlimit: 10; fill: none; fill-rule: nonzero; opacity: 1;" vector-effect="non-scaling-stroke"  points="19.18,-12.94 19.18,12.94 -19.18,12.94 -19.18,-12.94 " />
</g>
<g transform="matrix(7.94 0 0 7.94 540.06 505.35)"  >
<polygon style="stroke: #fff; stroke-width: 1; stroke-dasharray: none; stroke-linecap: round; stroke-dashoffset: 0; stroke-linejoin: round; stroke-miterlimit: 10; fill: none; fill-rule: nonzero; opacity: 1;" vector-effect="non-scaling-stroke"  points="9.59,-8.57 0,-17.14 -9.59,-8.57 -19.18,0 -9.59,8.57 0,17.14 9.59,8.57 19.18,0 " />
</g>
<g transform="matrix(7.94 0 0 7.94 540.06 500.86)"  >
<path style="stroke: none; stroke-width: 1; stroke-dasharray: none; stroke-linecap: butt; stroke-dashoffset: 0; stroke-linejoin: miter; stroke-miterlimit: 4; fill: #fff; fill-rule: nonzero; opacity: 1;" vector-effect="non-scaling-stroke"  transform=" translate(-85.04, -407.92)" d="M 89.354 400.943 C 90.597 401.59299999999996 91.564 402.49899999999997 92.255 403.661 C 92.946 404.822 93.291 406.135 93.291 407.599 C 93.291 409.108 92.99499999999999 410.28999999999996 92.40299999999999 411.144 C 91.81099999999999 411.997 90.99199999999999 412.424 89.946 412.424 C 89.389 412.424 88.91799999999999 412.294 88.535 412.03299999999996 C 88.152 411.77099999999996 87.88499999999999 411.39599999999996 87.734 410.90899999999993 C 87.03699999999999 411.9189999999999 85.99199999999999 412.4239999999999 84.598 412.4239999999999 C 83.80799999999999 412.4239999999999 83.094 412.2349999999999 82.455 411.85799999999995 C 81.816 411.48099999999994 81.316 410.9549999999999 80.956 410.28099999999995 C 80.596 409.60799999999995 80.416 408.84099999999995 80.416 407.98199999999997 C 80.416 407.13399999999996 80.596 406.376 80.956 405.70799999999997 C 81.316 405.041 81.815 404.517 82.455 404.14 C 83.094 403.763 83.80799999999999 403.574 84.598 403.574 C 85.214 403.574 85.768 403.678 86.262 403.88800000000003 C 86.755 404.09600000000006 87.171 404.40400000000005 87.508 404.81100000000004 L 87.508 403.67800000000005 L 89.442 403.67800000000005 L 89.442 409.60200000000003 C 89.442 410.02000000000004 89.526 410.32200000000006 89.695 410.50800000000004 C 89.863 410.69500000000005 90.08099999999999 410.78700000000003 90.348 410.78700000000003 C 90.824 410.78700000000003 91.187 410.51700000000005 91.437 409.97700000000003 C 91.687 409.437 91.812 408.656 91.812 407.634 C 91.812 406.402 91.53 405.31600000000003 90.967 404.37600000000003 C 90.403 403.43600000000004 89.617 402.704 88.606 402.18 C 87.59599999999999 401.658 86.434 401.397 85.121 401.397 C 83.797 401.397 82.62299999999999 401.673 81.601 402.224 C 80.579 402.776 79.789 403.546 79.232 404.533 C 78.67399999999999 405.52000000000004 78.396 406.641 78.396 407.896 C 78.396 409.17400000000004 78.672 410.30600000000004 79.224 411.293 C 79.775 412.28000000000003 80.557 413.05 81.56700000000001 413.601 C 82.57700000000001 414.153 83.739 414.429 85.052 414.429 C 85.62100000000001 414.429 86.19800000000001 414.364 86.78500000000001 414.23699999999997 C 87.37100000000001 414.109 87.92000000000002 413.917 88.43200000000002 413.662 L 88.90200000000002 415.05499999999995 C 88.39100000000002 415.32199999999995 87.79000000000002 415.52599999999995 87.09900000000002 415.66499999999996 C 86.40800000000002 415.80499999999995 85.72500000000002 415.87499999999994 85.05200000000002 415.87499999999994 C 83.42500000000003 415.87499999999994 81.98800000000003 415.5319999999999 80.73900000000002 414.8469999999999 C 79.49100000000001 414.1619999999999 78.52100000000002 413.2149999999999 77.83000000000001 412.00699999999995 C 77.13900000000001 410.7989999999999 76.793 409.429 76.793 407.89599999999996 C 76.793 406.38699999999994 77.14200000000001 405.03 77.83800000000001 403.82699999999994 C 78.53500000000001 402.62499999999994 79.513 401.68199999999996 80.774 400.9959999999999 C 82.034 400.3109999999999 83.483 399.9679999999999 85.121 399.9679999999999 C 86.7 399.967 88.112 400.293 89.354 400.943 z M 86.82 409.994 C 87.30199999999999 409.50100000000003 87.54299999999999 408.829 87.54299999999999 407.982 C 87.54299999999999 407.14500000000004 87.30199999999999 406.483 86.82 405.995 C 86.338 405.507 85.72 405.264 84.964 405.264 C 84.197 405.264 83.576 405.51 83.1 406.004 C 82.62299999999999 406.499 82.38499999999999 407.15700000000004 82.38499999999999 407.982 C 82.38499999999999 408.81800000000004 82.62299999999999 409.48600000000005 83.1 409.985 C 83.576 410.485 84.19699999999999 410.73400000000004 84.964 410.73400000000004 C 85.719 410.734 86.337 410.487 86.82 409.994 z" stroke-linecap="round" />
</g>
<g transform="matrix(7.94 0 0 7.94 540.06 642.73)"  >
<polygon style="stroke: #fff; stroke-width: 1; stroke-dasharray: none; stroke-linecap: round; stroke-dashoffset: 0; stroke-linejoin: round; stroke-miterlimit: 10; fill: rgb(255,255,255); fill-rule: nonzero; opacity: 1;" vector-effect="non-scaling-stroke"  points="0,-8.57 9.59,0 19.18,8.57 0,8.57 -19.18,8.57 -9.59,0 " />
</g>
</svg>