<?xml version="1.0" encoding="UTF-8" standalone="no" ?>
<!DOCTYPE svg PUBLIC "-//W3C//DTD SVG 1.1//EN" "http://www.w3.org/Graphics/SVG/1.1/DTD/svg11.dtd">
<svg xmlns="http://www.w3.org/2000/svg" xmlns:xlink="http://www.w3.org/1999/xlink" version="1.1" width="1080" height="1080" viewBox="0 0 1080 1080" xml:space="preserve">
<desc>Created with Fabric.js 5.2.4</desc>
<defs>
</defs>
<g transform="matrix(1 0 0 1 540 540)" id="29227a19-5bc2-4ded-a0dd-cb799f5a44b6"  >
</g>
<g transform="matrix(1 0 0 1 540 540)" id="15f901f0-20df-4a32-a834-8e1f64f37db0"  >
<rect style="stroke: none; stroke-width: 1; stroke-dasharray: none; stroke-linecap: butt; stroke-dashoffset: 0; stroke-linejoin: miter; stroke-miterlimit: 4; fill: rgb(255,255,255); fill-rule: nonzero; opacity: 1; visibility: hidden;" vector-effect="non-scaling-stroke"  x="-540" y="-540" rx="0" ry="0" width="1080" height="1080" />
</g>
<g transform="matrix(8.51 0 0 8.51 540 540)"  >
<path style="stroke: #fff; stroke-width: 1; stroke-dasharray: none; stroke-linecap: round; stroke-dashoffset: 0; stroke-linejoin: round; stroke-miterlimit: 10; fill: none; fill-rule: nonzero; opacity: 1;" vector-effect="non-scaling-stroke"  transform=" translate(-85.04, -217.51)" d="M 101.481 212.433 C 101.481 203.35399999999998 94.121 195.995 85.04299999999999 195.995 C 75.964 195.995 68.60499999999999 203.35500000000002 68.60499999999999 212.433 C 68.60499999999999 212.433 67.66999999999999 226.007 82.838 238.249 C 84.118 239.28199999999998 85.969 239.28199999999998 87.249 238.249 C 102.416 226.007 101.481 212.433 101.481 212.433 z" stroke-linecap="round" />
</g>
<g transform="matrix(8.51 0 0 8.51 539.99 493.07)"  >
<circle style="stroke: #fff; stroke-width: 1; stroke-dasharray: none; stroke-linecap: round; stroke-dashoffset: 0; stroke-linejoin: round; stroke-miterlimit: 10; fill: none; fill-rule: nonzero; opacity: 1;" vector-effect="non-scaling-stroke"  cx="0" cy="0" r="7.948" />
</g>
</svg>