<?xml version="1.0" encoding="UTF-8" standalone="no" ?>
<!DOCTYPE svg PUBLIC "-//W3C//DTD SVG 1.1//EN" "http://www.w3.org/Graphics/SVG/1.1/DTD/svg11.dtd">
<svg xmlns="http://www.w3.org/2000/svg" xmlns:xlink="http://www.w3.org/1999/xlink" version="1.1" width="1080" height="1080" viewBox="0 0 1080 1080" xml:space="preserve">
<desc>Created with Fabric.js 5.2.4</desc>
<defs>
</defs>
<g transform="matrix(1 0 0 1 540 540)" id="382a503f-ee4f-4753-b5dd-4a1104e14a29"  >
<rect style="stroke: none; stroke-width: 1; stroke-dasharray: none; stroke-linecap: butt; stroke-dashoffset: 0; stroke-linejoin: miter; stroke-miterlimit: 4; fill: rgb(255,255,255); fill-rule: nonzero; opacity: 1; visibility: hidden;" vector-effect="non-scaling-stroke"  x="-540" y="-540" rx="0" ry="0" width="1080" height="1080" />
</g>
<g transform="matrix(0 0 0 0 0 0)" id="54751cf2-0aa8-4800-8187-fad3ac2bd0ad"  >
</g>
<g transform="matrix(0.36 0 0 0.36 572.39 314.99)"  >
<path style="stroke: none; stroke-width: 1; stroke-dasharray: none; stroke-linecap: butt; stroke-dashoffset: 0; stroke-linejoin: miter; stroke-miterlimit: 4; fill: #fff; fill-rule: nonzero; opacity: 1;" vector-effect="non-scaling-stroke"  transform=" translate(-1596.63, -366.7)" d="M 1596.69 366.811 C 1596.65 366.72299999999996 1596.607 366.635 1596.5620000000001 366.549 C 1596.553 366.592 1596.5910000000001 366.705 1596.7020000000002 366.85299999999995 C 1596.698 366.834 1596.694 366.828 1596.69 366.811 z" stroke-linecap="round" />
</g>
<g transform="matrix(3.67 0 0 3.67 394.23 540)"  >
<path style="stroke: none; stroke-width: 1; stroke-dasharray: none; stroke-linecap: butt; stroke-dashoffset: 0; stroke-linejoin: miter; stroke-miterlimit: 4; fill: #fff; fill-rule: nonzero; opacity: 1;" vector-effect="non-scaling-stroke"  transform=" translate(-342.73, -301.45)" d="M 390.87 294.669 C 387.072 301.315 380.16 303.413 373.077 304.70599999999996 C 368.685 305.508 358.655 306.794 353.416 303.71799999999996 C 356.901 302.645 358.885 298.34499999999997 356.572 295.222 C 354.836 292.878 350.911 292.962 349.673 295.48199999999997 C 349.408 295.44599999999997 349.13 295.56399999999996 349.024 295.917 C 347.967 299.40099999999995 349.036 301.899 351.158 303.65 C 338.317 310.88 323.27000000000004 294.866 309.935 300.979 C 309.775 301.05199999999996 309.69 301.176 309.657 301.315 C 309.217 301.23199999999997 308.777 301.193 308.33799999999997 301.174 C 304.11499999999995 298.592 299.18499999999995 297.82899999999995 294.29499999999996 298.623 C 293.919 298.68399999999997 293.91999999999996 299.209 294.19599999999997 299.384 C 296.498 300.841 298.799 302.29900000000004 301.10099999999994 303.757 C 299.7749999999999 304.86 298.6789999999999 306.246 297.95399999999995 307.802 C 297.84 308.047 297.86699999999996 308.40000000000003 298.14599999999996 308.53400000000005 C 298.44499999999994 308.677 298.74799999999993 308.80000000000007 299.05299999999994 308.90600000000006 C 299.09599999999995 309.1670000000001 299.36499999999995 309.3930000000001 299.64399999999995 309.20500000000004 C 299.68899999999996 309.17500000000007 299.73299999999995 309.14300000000003 299.77799999999996 309.11300000000006 C 304.33799999999997 310.26500000000004 309.20899999999995 307.52500000000003 309.61899999999997 302.4150000000001 C 309.642 302.1230000000001 309.34599999999995 302.0230000000001 309.118 302.10300000000007 C 309.179 302.0730000000001 309.218 302.0210000000001 309.239 301.9560000000001 C 309.44399999999996 301.9500000000001 309.64399999999995 301.92800000000005 309.851 301.93000000000006 C 309.988 302.06700000000006 310.178 302.14400000000006 310.397 302.0710000000001 C 323.267 297.7730000000001 340.428 313.0130000000001 351.921 304.2150000000001 C 356.176 307.0890000000001 363.49899999999997 307.5990000000001 367.537 307.15600000000006 C 376.387 306.18600000000004 387.741 304.18600000000004 391.43699999999995 294.9080000000001 C 391.567 294.578 391.04 294.371 390.87 294.669 z M 295.802 299.415 C 298.665 299.947 301.442 300.618 304.22 301.55600000000004 C 304.637 301.69700000000006 304.81500000000005 301.03900000000004 304.401 300.898 C 302.06 300.103 299.618 299.511 297.153 299.182 C 300.60400000000004 299.05100000000004 303.90200000000004 299.772 307.07 301.19800000000004 C 305.177 301.37100000000004 303.361 302.10100000000006 301.801 303.21500000000003 C 301.795 303.211 301.792 303.20500000000004 301.786 303.201 C 299.792 301.939 297.797 300.677 295.802 299.415 z M 300.973 308.289 C 303.482 306.529 305.98400000000004 304.62399999999997 308.651 303.156 C 307.465 306.576 304.423 308.752 300.973 308.289 z M 308.993 302.156 C 306.24899999999997 304.42 302.959 306.172 299.924 308.06600000000003 C 299.667 307.99300000000005 299.40999999999997 307.903 299.15099999999995 307.79900000000004 C 301.08299999999997 304.11400000000003 304.6569999999999 302.24600000000004 308.65799999999996 301.98 C 308.73699999999997 302.022 308.81699999999995 302.05600000000004 308.895 302.098 C 308.96 302.13300000000004 309.02099999999996 302.13300000000004 309.075 302.119 C 309.049 302.133 309.017 302.137 308.993 302.156 z M 352.585 302.738 C 352.53999999999996 302.766 352.496 302.793 352.462 302.828 C 352.414 302.86199999999997 352.366 302.9 352.318 302.933 C 350.623 301.498 349.72999999999996 299.385 350.231 296.31 C 351.552 294.233 354.575 293.859 355.921 296.309 C 357.27299999999997 298.76700000000005 355.74 300.942 353.686 302.16900000000004 C 353.589 302.10800000000006 353.457 302.09700000000004 353.34 302.19000000000005 C 353.089 302.389 352.837 302.559 352.585 302.738 z" stroke-linecap="round" />
</g>
<g transform="matrix(3.67 0 0 3.67 685.77 540)"  >
<path style="stroke: none; stroke-width: 1; stroke-dasharray: none; stroke-linecap: butt; stroke-dashoffset: 0; stroke-linejoin: miter; stroke-miterlimit: 4; fill: #fff; fill-rule: nonzero; opacity: 1;" vector-effect="non-scaling-stroke"  transform=" translate(-422.24, -301.45)" d="M 373.528 294.908 C 377.223 304.18600000000004 388.577 306.18600000000004 397.428 307.156 C 401.466 307.599 408.789 307.088 413.044 304.21500000000003 C 424.537 313.014 441.698 297.773 454.568 302.071 C 454.787 302.144 454.977 302.067 455.114 301.93 C 455.32099999999997 301.927 455.52099999999996 301.95 455.726 301.956 C 455.748 302.021 455.787 302.07300000000004 455.848 302.103 C 455.62100000000004 302.023 455.324 302.123 455.34700000000004 302.415 C 455.75600000000003 307.526 460.627 310.26500000000004 465.187 309.113 C 465.232 309.143 465.276 309.175 465.321 309.205 C 465.6 309.393 465.869 309.167 465.91200000000003 308.906 C 466.21700000000004 308.8 466.521 308.677 466.819 308.534 C 467.098 308.4 467.125 308.04699999999997 467.011 307.80199999999996 C 466.286 306.246 465.189 304.85999999999996 463.86400000000003 303.75699999999995 C 466.16600000000005 302.2989999999999 468.46700000000004 300.8419999999999 470.769 299.38399999999996 C 471.044 299.20899999999995 471.045 298.68399999999997 470.669 298.62299999999993 C 465.77799999999996 297.82899999999995 460.849 298.5919999999999 456.626 301.1739999999999 C 456.18699999999995 301.1919999999999 455.74699999999996 301.2319999999999 455.30699999999996 301.31499999999994 C 455.27399999999994 301.17599999999993 455.18799999999993 301.05199999999996 455.02899999999994 300.9789999999999 C 441.69399999999996 294.86599999999993 426.64699999999993 310.8809999999999 413.8059999999999 303.6499999999999 C 415.9289999999999 301.8979999999999 416.9969999999999 299.3999999999999 415.93999999999994 295.9169999999999 C 415.8329999999999 295.56499999999994 415.55499999999995 295.4469999999999 415.29099999999994 295.4819999999999 C 414.05299999999994 292.96199999999993 410.12799999999993 292.8789999999999 408.39199999999994 295.2219999999999 C 406.07899999999995 298.3449999999999 408.06299999999993 302.64399999999995 411.54799999999994 303.7179999999999 C 406.30799999999994 306.7939999999999 396.27899999999994 305.5069999999999 391.88699999999994 304.7059999999999 C 384.80499999999995 303.4129999999999 377.89199999999994 301.3149999999999 374.09399999999994 294.6689999999999 C 373.923 294.371 373.396 294.578 373.528 294.908 z M 463.177 303.201 C 463.17 303.20500000000004 463.168 303.211 463.16200000000003 303.21500000000003 C 461.60200000000003 302.10200000000003 459.78600000000006 301.37100000000004 457.89300000000003 301.19800000000004 C 461.06100000000004 299.77200000000005 464.35900000000004 299.05 467.81 299.182 C 465.345 299.511 462.904 300.103 460.562 300.898 C 460.148 301.03900000000004 460.326 301.696 460.743 301.55600000000004 C 463.521 300.61800000000005 466.298 299.94700000000006 469.161 299.415 C 467.166 300.677 465.171 301.939 463.177 303.201 z M 456.312 303.156 C 458.979 304.624 461.481 306.529 463.99 308.289 C 460.54 308.752 457.498 306.576 456.312 303.156 z M 455.886 302.12 C 455.94 302.134 456.00100000000003 302.134 456.06600000000003 302.099 C 456.14500000000004 302.057 456.225 302.022 456.30400000000003 301.981 C 460.305 302.247 463.879 304.115 465.81100000000004 307.8 C 465.552 307.904 465.295 307.993 465.038 308.067 C 462.003 306.173 458.713 304.422 455.969 302.157 C 455.946 302.137 455.914 302.133 455.886 302.12 z M 411.623 302.189 C 411.506 302.096 411.37399999999997 302.107 411.277 302.168 C 409.222 300.94100000000003 407.69 298.767 409.042 296.308 C 410.388 293.859 413.412 294.233 414.73199999999997 296.30899999999997 C 415.23299999999995 299.38399999999996 414.34 301.49699999999996 412.645 302.93199999999996 C 412.597 302.89899999999994 412.549 302.86099999999993 412.501 302.82699999999994 C 412.467 302.79299999999995 412.423 302.76499999999993 412.378 302.73699999999997 C 412.126 302.559 411.874 302.389 411.623 302.189 z" stroke-linecap="round" />
</g>
</svg>