<?xml version="1.0" encoding="UTF-8" standalone="no" ?>
<!DOCTYPE svg PUBLIC "-//W3C//DTD SVG 1.1//EN" "http://www.w3.org/Graphics/SVG/1.1/DTD/svg11.dtd">
<svg xmlns="http://www.w3.org/2000/svg" xmlns:xlink="http://www.w3.org/1999/xlink" version="1.1" width="1080" height="1080" viewBox="0 0 1080 1080" xml:space="preserve">
<desc>Created with Fabric.js 5.2.4</desc>
<defs>
</defs>
<g transform="matrix(0 0 0 0 0 0)" id="54751cf2-0aa8-4800-8187-fad3ac2bd0ad"  >
</g>
<g transform="matrix(1 0 0 1 540 540)" id="382a503f-ee4f-4753-b5dd-4a1104e14a29"  >
<rect style="stroke: none; stroke-width: 1; stroke-dasharray: none; stroke-linecap: butt; stroke-dashoffset: 0; stroke-linejoin: miter; stroke-miterlimit: 4; fill: rgb(255,255,255); fill-rule: nonzero; opacity: 1; visibility: hidden;" vector-effect="non-scaling-stroke"  x="-540" y="-540" rx="0" ry="0" width="1080" height="1080" />
</g>
<g transform="matrix(0.47 0 0 0.47 649.76 519.98)"  >
<path style="stroke: none; stroke-width: 1; stroke-dasharray: none; stroke-linecap: butt; stroke-dashoffset: 0; stroke-linejoin: miter; stroke-miterlimit: 4; fill: rgb(0,0,0); fill-rule: nonzero; opacity: 1;" vector-effect="non-scaling-stroke"  transform=" translate(-1596.63, -366.7)" d="M 1596.69 366.811 C 1596.65 366.72299999999996 1596.607 366.635 1596.5620000000001 366.549 C 1596.553 366.592 1596.5910000000001 366.705 1596.7020000000002 366.85299999999995 C 1596.698 366.834 1596.694 366.828 1596.69 366.811 z" stroke-linecap="round" />
</g>
<g transform="matrix(3.51 0 0 3.51 366.32 542.77)" id="OBJECTS"  >
<path style="stroke: none; stroke-width: 1; stroke-dasharray: none; stroke-linecap: butt; stroke-dashoffset: 0; stroke-linejoin: miter; stroke-miterlimit: 4; fill: rgb(29,29,27); fill-rule: nonzero; opacity: 1;" vector-effect="non-scaling-stroke"  transform=" translate(-339.06, -355.48)" d="M 391.469 345.696 C 385.574 351.463 377.9 353.713 370.057 355.46400000000006 C 370.192 355.2970000000001 370.225 355.05500000000006 370.023 354.89500000000004 C 364.951 350.879 358.336 349.45700000000005 351.98900000000003 350.194 C 351.58400000000006 350.24100000000004 351.22700000000003 350.767 351.615 351.098 C 355.067 354.04200000000003 359.173 356.106 363.601 356.789 C 358.751 357.70799999999997 353.866 358.448 348.953 358.914 C 349.42499999999995 358.854 349.897 358.77799999999996 350.366 358.667 C 350.579 358.616 350.59299999999996 358.42299999999994 350.507 358.28099999999995 C 350.611 358.36499999999995 350.718 358.43799999999993 350.821 358.52399999999994 C 351.225 358.8589999999999 351.802 358.3109999999999 351.408 357.93699999999995 C 347.31 354.05499999999995 341.861 352.05999999999995 336.264 351.88599999999997 C 335.908 351.87499999999994 335.684 352.29099999999994 335.86 352.59 C 338.322 356.76099999999997 342.886 359.121 347.589 359.01 L 347.624 359.02799999999996 C 347.144 359.06999999999994 346.66400000000004 359.11499999999995 346.18300000000005 359.15099999999995 C 341.31600000000003 359.51099999999997 336.487 359.56299999999993 331.70700000000005 359.29799999999994 C 331.89400000000006 359.17199999999997 332.00700000000006 358.93199999999996 331.85900000000004 358.70899999999995 C 328.87800000000004 354.21799999999996 323.74600000000004 351.3469999999999 318.52400000000006 350.393 C 318.17400000000004 350.32899999999995 317.77700000000004 350.61699999999996 317.90700000000004 351.01 C 317.96600000000007 351.187 318.04200000000003 351.354 318.10800000000006 351.527 C 318.06300000000005 351.615 318.0710000000001 351.728 318.18500000000006 351.79499999999996 C 318.19700000000006 351.80199999999996 318.2080000000001 351.80899999999997 318.2200000000001 351.816 C 319.4550000000001 354.86999999999995 321.7320000000001 357.29299999999995 324.5930000000001 358.64599999999996 C 321.20200000000006 358.20799999999997 317.83900000000006 357.60699999999997 314.51700000000005 356.78499999999997 C 314.5400000000001 356.765 314.55100000000004 356.73799999999994 314.56600000000003 356.71099999999996 C 314.855 356.92099999999994 315.34700000000004 356.71999999999997 315.22200000000004 356.287 C 313.699 351.008 309.146 347.022 303.88700000000006 345.71799999999996 C 303.49800000000005 345.621 303.2130000000001 345.95799999999997 303.2780000000001 346.32599999999996 C 303.98800000000006 350.296 306.5850000000001 353.76 310.0970000000001 355.56899999999996 C 306.4270000000001 354.44699999999995 302.8070000000001 353.07099999999997 299.2480000000001 351.40299999999996 C 299.4060000000001 351.28 299.4690000000001 351.02099999999996 299.2960000000001 350.87899999999996 C 299.2210000000001 350.818 299.1420000000001 350.76699999999994 299.0660000000001 350.70799999999997 C 299.19900000000007 350.60799999999995 299.26400000000007 350.41299999999995 299.11500000000007 350.25699999999995 C 297.30000000000007 348.35999999999996 295.96900000000005 346.17599999999993 295.04800000000006 343.739 C 297.48400000000004 345.63599999999997 299.06700000000006 347.99899999999997 299.94900000000007 351.046 C 300.0210000000001 351.293 300.45400000000006 351.259 300.4190000000001 350.98199999999997 C 299.9680000000001 347.49499999999995 297.7700000000001 344.22999999999996 294.7060000000001 342.5 C 294.4310000000001 342.345 294.1460000000001 342.547 294.1190000000001 342.837 C 293.9550000000001 344.599 293.8780000000001 346.385 294.0700000000001 348.14799999999997 C 291.6000000000001 347.467 288.9640000000001 347.498 286.3820000000001 348.33399999999995 C 286.0370000000001 348.44599999999997 285.89100000000013 348.88699999999994 286.16500000000013 349.1569999999999 C 289.44300000000015 352.3809999999999 293.9830000000001 353.63999999999993 298.38600000000014 352.38199999999995 C 299.50600000000014 352.96799999999996 300.64300000000014 353.50899999999996 301.78900000000016 354.02899999999994 C 297.72700000000015 354.2149999999999 293.86100000000016 356.63999999999993 291.68800000000016 360.1549999999999 C 291.45600000000013 360.52899999999994 291.76500000000016 360.9349999999999 292.15500000000014 360.96899999999994 C 297.75300000000016 361.4529999999999 303.2590000000001 359.92699999999996 307.65000000000015 356.37999999999994 C 307.65200000000016 356.37799999999993 307.65300000000013 356.3759999999999 307.65500000000014 356.37399999999997 C 310.44100000000014 357.34499999999997 313.28400000000016 358.13699999999994 316.1630000000001 358.78499999999997 C 311.8320000000001 359.75399999999996 307.8490000000001 362.04099999999994 304.54700000000014 365.00199999999995 C 304.16900000000015 365.34099999999995 304.49400000000014 365.90299999999996 304.93300000000016 365.93399999999997 C 310.6220000000002 366.34 316.67600000000016 364.626 320.73700000000014 360.46799999999996 C 321.08500000000015 360.11199999999997 320.60900000000015 359.426 320.18300000000016 359.74999999999994 C 316.52500000000015 362.53799999999995 312.7570000000002 364.3519999999999 308.40900000000016 364.77299999999997 C 312.11900000000014 363.34 315.82300000000015 361.842 319.4320000000002 360.20099999999996 C 319.7510000000002 360.056 319.5230000000002 359.50199999999995 319.1910000000002 359.62899999999996 C 315.0620000000002 361.21399999999994 310.9810000000002 363.008 306.9500000000002 364.847 C 306.7660000000002 364.851 306.5880000000002 364.87199999999996 306.4020000000002 364.871 C 309.8550000000002 362.075 313.65800000000024 360.378 317.90600000000023 359.161 C 322.96800000000025 360.186 328.1350000000002 360.743 333.3150000000002 360.931 C 330.22100000000023 362.063 327.5130000000002 364.17199999999997 325.50700000000023 366.964 C 325.32100000000025 367.223 325.5050000000002 367.674 325.8180000000002 367.73 C 332.0750000000002 368.85200000000003 339.2050000000002 366.471 342.6360000000002 360.873 C 344.3910000000002 360.793 346.1430000000002 360.69 347.8840000000002 360.538 C 348.63700000000017 360.47200000000004 349.39000000000016 360.394 350.14200000000017 360.317 C 347.12300000000016 361.87 344.53400000000016 364.288 342.70000000000016 367.163 C 342.48400000000015 367.502 342.76300000000015 368.019 343.17600000000016 367.992 C 349.23700000000014 367.59000000000003 355.52700000000016 364.646 358.8460000000002 359.37600000000003 C 358.89000000000016 359.307 358.9030000000002 359.237 358.9050000000002 359.168 C 363.5280000000002 358.42900000000003 368.1190000000002 357.48900000000003 372.6530000000002 356.36 C 368.1630000000002 358.637 364.7660000000002 362.969 363.3910000000002 367.784 C 363.2750000000002 368.18899999999996 363.6800000000002 368.64 364.1030000000002 368.495 C 369.87300000000016 366.512 374.5640000000002 362.11400000000003 376.26000000000016 356.17 C 376.4200000000002 355.60900000000004 375.5960000000002 355.403 375.39900000000017 355.933 C 373.64700000000016 360.633 370.31100000000015 364.502 365.8020000000002 366.574 C 368.4510000000002 362.882 371.49300000000017 359.63800000000003 374.4840000000002 356.211 C 374.5100000000002 356.18100000000004 374.5060000000002 356.151 374.5180000000002 356.12 C 374.5640000000002 356.045 374.5860000000002 355.959 374.5620000000002 355.874 C 381.14000000000016 354.112 387.5200000000002 351.6 391.9990000000002 346.231 C 392.306 345.862 391.821 345.352 391.469 345.696 z M 294.794 344.081 C 295.402 346.25800000000004 296.484 348.231 297.978 349.927 C 296.909 349.233 295.777 348.685 294.598 348.308 C 294.639 346.891 294.678 345.488 294.794 344.081 z M 297.873 350.705 C 294.768 350.471 291.775 349.82099999999997 288.846 348.758 C 292.005 348.243 295.181 348.884 297.873 350.705 z M 298.06 351.9 C 294.249 352.53099999999995 290.468 351.54699999999997 287.533 349.03999999999996 C 287.586 349.02599999999995 287.639 349.01 287.692 348.99699999999996 C 287.729 349.044 287.774 349.08699999999993 287.841 349.11299999999994 C 291.211 350.43499999999995 294.666 351.19199999999995 298.259 351.4239999999999 C 298.129 351.552 298.056 351.726 298.06 351.9 z M 303.919 354.956 C 304.19399999999996 355.07 304.47299999999996 355.16900000000004 304.75 355.278 C 300.898 356.428 297.006 357.81100000000004 293.402 359.613 C 295.968 356.286 299.797 354.798 303.919 354.956 z M 293.765 359.936 C 297.752 358.47999999999996 301.69399999999996 356.95599999999996 305.75 355.66499999999996 C 306.03 355.77099999999996 306.307 355.88699999999994 306.588 355.98999999999995 C 302.688 358.65 298.435 360.028 293.765 359.936 z M 304.427 346.919 C 304.54400000000004 346.954 304.65000000000003 347.005 304.766 347.042 C 304.771 347.05899999999997 304.77000000000004 347.077 304.784 347.094 C 307.351 350.02 309.99 352.881 312.626 355.74399999999997 C 308.599 354.298 305.51 351.144 304.427 346.919 z M 313.782 356.1 C 313.83299999999997 355.96700000000004 313.82399999999996 355.814 313.69599999999997 355.68300000000005 C 310.91499999999996 352.84800000000007 308.13699999999994 350.00800000000004 305.294 347.23400000000004 C 309.51 348.77400000000006 312.62 351.99600000000004 314.288 356.23300000000006 C 314.117 356.193 313.95 356.145 313.782 356.1 z M 327.752 359 C 324.286 358.141 321.354 355.88 319.707 352.717 C 322.887 354.645 325.929 356.72299999999996 328.817 359.084 C 328.463 359.054 328.106 359.034 327.752 359 z M 330.17 359.191 C 326.812 356.411 323.2 353.90599999999995 319.324 351.89799999999997 C 319.277 351.78799999999995 319.216 351.686 319.172 351.573 C 324.091 352.712 327.846 355.407 331.158 359.25 C 331.166 359.26 331.177 359.262 331.18600000000004 359.271 C 330.846 359.251 330.509 359.215 330.17 359.191 z M 326.931 366.837 C 329.27 363.849 332.371 361.899 335.917 360.991 C 337.02799999999996 361.005 338.138 360.996 339.248 360.977 C 335.306 362.825 331.42 364.84799999999996 327.581 366.895 C 327.365 366.877 327.15 366.863 326.931 366.837 z M 328.539 366.944 C 332.549 365.142 336.566 363.29 340.464 361.266 C 340.614 361.18800000000005 340.665 361.065 340.658 360.942 C 340.913 360.935 341.168 360.933 341.422 360.92400000000004 C 337.945 364.723 333.617 367.057 328.539 366.944 z M 337.505 353.227 C 340.133 355.06199999999995 342.942 356.64599999999996 345.8 358.10999999999996 C 342.561 357.569 339.662 355.861 337.505 353.227 z M 337.801 352.949 C 342.512 353.377 346.622 355.185 350.35499999999996 358.163 C 350.31199999999995 358.148 350.27299999999997 358.124 350.21899999999994 358.132 C 349.4819999999999 358.245 348.75399999999996 358.294 348.0349999999999 358.294 C 344.549 356.641 341.198 354.77 337.801 352.949 z M 353.583 359.927 C 354.06800000000004 359.86600000000004 354.55100000000004 359.79200000000003 355.035 359.728 C 351.85400000000004 361.533 348.678 363.358 345.56100000000004 365.267 C 347.771 362.794 350.474 361.064 353.583 359.927 z M 344.324 366.784 C 344.391 366.692 344.464 366.61 344.53200000000004 366.519 C 344.55100000000004 366.51300000000003 344.569 366.512 344.588 366.502 C 348.79400000000004 364.276 352.91400000000004 361.858 357.023 359.454 C 357.22200000000004 359.425 357.422 359.402 357.622 359.372 C 353.965 363.382 349.754 366.132 344.324 366.784 z M 353.365 351.121 C 353.51800000000003 351.10999999999996 353.665 351.11699999999996 353.817 351.109 C 353.817 351.109 353.817 351.109 353.817 351.109 C 357.39 352.448 361.004 353.68 364.613 354.91999999999996 C 364.507 354.931 364.402 354.924 364.295 354.941 C 364.16200000000003 354.962 364.19300000000004 355.18399999999997 364.327 355.176 C 364.683 355.155 365.032 355.157 365.375 355.183 C 365.78 355.323 366.186 355.462 366.591 355.602 C 366.604 355.68899999999996 366.645 355.77099999999996 366.757 355.79999999999995 C 367.01 355.86699999999996 367.263 355.93399999999997 367.516 356.001 C 367.084 356.089 366.65200000000004 356.18199999999996 366.22 356.27 C 361.478 355.578 357.196 354.022 353.365 351.121 z M 368.645 355.766 C 368.644 355.76500000000004 368.644 355.764 368.642 355.76300000000003 C 368.117 355.482 367.564 355.27900000000005 367 355.12500000000006 C 366.963 355.06500000000005 366.91 355.01300000000003 366.827 354.98500000000007 C 362.878 353.6690000000001 358.936 352.3160000000001 354.961 351.0780000000001 C 360.194 351.0470000000001 364.89 352.7000000000001 369.485 355.59100000000007 C 369.205 355.653 368.924 355.707 368.645 355.766 z M 365.234 366.834 C 365.12699999999995 366.878 365.029 366.936 364.921 366.978 C 366.404 363.069 368.881 360.038 372.202 357.663 C 369.513 360.381 367.227 363.619 365.234 366.834 z" stroke-linecap="round" />
</g>
<g transform="matrix(3.51 0 0 3.51 676.96 537.23)" id="OBJECTS"  >
<path style="stroke: none; stroke-width: 1; stroke-dasharray: none; stroke-linecap: butt; stroke-dashoffset: 0; stroke-linejoin: miter; stroke-miterlimit: 4; fill: rgb(29,29,27); fill-rule: nonzero; opacity: 1;" vector-effect="non-scaling-stroke"  transform=" translate(-425.9, -355.48)" d="M 372.962 346.228 C 377.441 351.596 383.82099999999997 354.10900000000004 390.399 355.871 C 390.375 355.95599999999996 390.396 356.042 390.443 356.11699999999996 C 390.454 356.14799999999997 390.45099999999996 356.17799999999994 390.477 356.20799999999997 C 393.46799999999996 359.635 396.51 362.87899999999996 399.159 366.57099999999997 C 394.65 364.49899999999997 391.31399999999996 360.631 389.562 355.92999999999995 C 389.36400000000003 355.4 388.541 355.60599999999994 388.701 356.167 C 390.39700000000005 362.111 395.088 366.50899999999996 400.858 368.49199999999996 C 401.28000000000003 368.63699999999994 401.685 368.186 401.57 367.78099999999995 C 400.195 362.96599999999995 396.799 358.63399999999996 392.308 356.35699999999997 C 396.842 357.486 401.433 358.426 406.056 359.16499999999996 C 406.058 359.234 406.072 359.30499999999995 406.115 359.373 C 409.433 364.644 415.724 367.58799999999997 421.785 367.989 C 422.19800000000004 368.01599999999996 422.47700000000003 367.49899999999997 422.261 367.15999999999997 C 420.427 364.28499999999997 417.838 361.86699999999996 414.819 360.31399999999996 C 415.571 360.39099999999996 416.324 360.46899999999994 417.077 360.53499999999997 C 418.818 360.68699999999995 420.57 360.78999999999996 422.325 360.86999999999995 C 425.756 366.4669999999999 432.88599999999997 368.84799999999996 439.143 367.727 C 439.457 367.671 439.64099999999996 367.21999999999997 439.455 366.96099999999996 C 437.45 364.169 434.741 362.05999999999995 431.647 360.92799999999994 C 436.827 360.73999999999995 441.99399999999997 360.18299999999994 447.056 359.15799999999996 C 451.304 360.37499999999994 455.10699999999997 362.07199999999995 458.56 364.86799999999994 C 458.373 364.86799999999994 458.196 364.84799999999996 458.012 364.84399999999994 C 453.981 363.00499999999994 449.9 361.2099999999999 445.771 359.6259999999999 C 445.439 359.4989999999999 445.211 360.05299999999994 445.53000000000003 360.1979999999999 C 449.139 361.8399999999999 452.843 363.33699999999993 456.55300000000005 364.7699999999999 C 452.20500000000004 364.3479999999999 448.43600000000004 362.5349999999999 444.77900000000005 359.7469999999999 C 444.35300000000007 359.4219999999999 443.87700000000007 360.1089999999999 444.2250000000001 360.4649999999999 C 448.2870000000001 364.62299999999993 454.3400000000001 366.33699999999993 460.02900000000005 365.9309999999999 C 460.46900000000005 365.8999999999999 460.79300000000006 365.3379999999999 460.4150000000001 364.9989999999999 C 457.11300000000006 362.0379999999999 453.13000000000005 359.7519999999999 448.7990000000001 358.7819999999999 C 451.6780000000001 358.13499999999993 454.5210000000001 357.3429999999999 457.3070000000001 356.3709999999999 C 457.3090000000001 356.37299999999993 457.31000000000006 356.37499999999994 457.31200000000007 356.3769999999999 C 461.7030000000001 359.9229999999999 467.2100000000001 361.4489999999999 472.8070000000001 360.9659999999999 C 473.19700000000006 360.9319999999999 473.5060000000001 360.5259999999999 473.27400000000006 360.1519999999999 C 471.10100000000006 356.6369999999999 467.23500000000007 354.21299999999985 463.17300000000006 354.0259999999999 C 464.3190000000001 353.5069999999999 465.4560000000001 352.9649999999999 466.5760000000001 352.3789999999999 C 470.9790000000001 353.6369999999999 475.51900000000006 352.37799999999993 478.7970000000001 349.1539999999999 C 479.0710000000001 348.8849999999999 478.92500000000007 348.4439999999999 478.5800000000001 348.3309999999999 C 475.9980000000001 347.4949999999999 473.3620000000001 347.4649999999999 470.8920000000001 348.1449999999999 C 471.0840000000001 346.38199999999995 471.0080000000001 344.59599999999995 470.84300000000013 342.83399999999995 C 470.81600000000014 342.5439999999999 470.5310000000001 342.3419999999999 470.25600000000014 342.49699999999996 C 467.1920000000001 344.227 464.99400000000014 347.49299999999994 464.5430000000001 350.9789999999999 C 464.5070000000001 351.25499999999994 464.94100000000014 351.2899999999999 465.01300000000015 351.04299999999995 C 465.89500000000015 347.9959999999999 467.4780000000001 345.6329999999999 469.91400000000016 343.73599999999993 C 468.99300000000017 346.17299999999994 467.66200000000015 348.3569999999999 465.84700000000015 350.2539999999999 C 465.69800000000015 350.4099999999999 465.76300000000015 350.6059999999999 465.89600000000013 350.7049999999999 C 465.82100000000014 350.76399999999995 465.74100000000016 350.81499999999994 465.66700000000014 350.8759999999999 C 465.49400000000014 351.0179999999999 465.55700000000013 351.27699999999993 465.71500000000015 351.3999999999999 C 462.1560000000001 353.0679999999999 458.53500000000014 354.4439999999999 454.86600000000016 355.5659999999999 C 458.37800000000016 353.7569999999999 460.97600000000017 350.2929999999999 461.6850000000002 346.3229999999999 C 461.75100000000015 345.9549999999999 461.4660000000002 345.61799999999994 461.0760000000002 345.7149999999999 C 455.8160000000002 347.0179999999999 451.2630000000002 351.00499999999994 449.7410000000002 356.28399999999993 C 449.6160000000002 356.71799999999996 450.1090000000002 356.91799999999995 450.3970000000002 356.7079999999999 C 450.41300000000024 356.7349999999999 450.42300000000023 356.7619999999999 450.4460000000002 356.7819999999999 C 447.1240000000002 357.6039999999999 443.7610000000002 358.2049999999999 440.3700000000002 358.6429999999999 C 443.23100000000017 357.2899999999999 445.50800000000015 354.8669999999999 446.74300000000017 351.81299999999993 C 446.75500000000017 351.8059999999999 446.7660000000002 351.7989999999999 446.7780000000002 351.7919999999999 C 446.89200000000017 351.7249999999999 446.9000000000002 351.6119999999999 446.8550000000002 351.52399999999994 C 446.92100000000016 351.35099999999994 446.9970000000002 351.18399999999997 447.0560000000002 351.00699999999995 C 447.1860000000002 350.61499999999995 446.7890000000002 350.32599999999996 446.4390000000002 350.38999999999993 C 441.2170000000002 351.34399999999994 436.0850000000002 354.21599999999995 433.1040000000002 358.7059999999999 C 432.9560000000002 358.9289999999999 433.0700000000002 359.1699999999999 433.2560000000002 359.2949999999999 C 428.4760000000002 359.5589999999999 423.6480000000002 359.5069999999999 418.7800000000002 359.1479999999999 C 418.2990000000002 359.1119999999999 417.8190000000002 359.0679999999999 417.3380000000002 359.0249999999999 L 417.3730000000002 359.00699999999995 C 422.0760000000002 359.11799999999994 426.6400000000002 356.7579999999999 429.1020000000002 352.58699999999993 C 429.2780000000002 352.28799999999995 429.0550000000002 351.87199999999996 428.6980000000002 351.8829999999999 C 423.1010000000002 352.0569999999999 417.6520000000002 354.0519999999999 413.5540000000002 357.9339999999999 C 413.1600000000002 358.30799999999994 413.7370000000002 358.85599999999994 414.1410000000002 358.5209999999999 C 414.2440000000002 358.4349999999999 414.35100000000017 358.3619999999999 414.4550000000002 358.2779999999999 C 414.3690000000002 358.4199999999999 414.3830000000002 358.6139999999999 414.59600000000023 358.66399999999993 C 415.0650000000002 358.77599999999995 415.5370000000002 358.8519999999999 416.00900000000024 358.91099999999994 C 411.09600000000023 358.44499999999994 406.21100000000024 357.7049999999999 401.36200000000025 356.78599999999994 C 405.79000000000025 356.10299999999995 409.8970000000003 354.03799999999995 413.34800000000024 351.09499999999997 C 413.73500000000024 350.765 413.37900000000025 350.239 412.9740000000002 350.191 C 406.6280000000002 349.455 400.0120000000002 350.87699999999995 394.9400000000002 354.892 C 394.7380000000002 355.052 394.77100000000024 355.293 394.90600000000023 355.461 C 387.0630000000002 353.71000000000004 379.38800000000026 351.46000000000004 373.49400000000026 345.693 C 373.142 345.352 372.657 345.862 372.962 346.228 z M 470.365 348.308 C 469.187 348.685 468.05400000000003 349.233 466.985 349.927 C 468.48 348.23 469.56100000000004 346.25800000000004 470.16900000000004 344.081 C 470.285 345.488 470.324 346.891 470.365 348.308 z M 476.117 348.758 C 473.18800000000005 349.82099999999997 470.195 350.471 467.09000000000003 350.705 C 469.782 348.884 472.958 348.243 476.117 348.758 z M 466.703 351.423 C 470.29699999999997 351.192 473.751 350.434 477.121 349.112 C 477.188 349.086 477.233 349.04400000000004 477.27 348.99600000000004 C 477.323 349.009 477.376 349.02500000000003 477.429 349.03900000000004 C 474.49399999999997 351.54600000000005 470.71299999999997 352.53000000000003 466.902 351.89900000000006 C 466.907 351.726 466.834 351.552 466.703 351.423 z M 471.562 359.613 C 467.958 357.811 464.065 356.428 460.214 355.278 C 460.49 355.16900000000004 460.77 355.07 461.045 354.956 C 465.166 354.798 468.995 356.286 471.562 359.613 z M 458.376 355.99 C 458.657 355.887 458.93399999999997 355.771 459.214 355.665 C 463.27 356.95500000000004 467.212 358.48 471.199 359.93600000000004 C 466.528 360.028 462.275 358.65 458.376 355.99 z M 452.337 355.743 C 454.973 352.88 457.613 350.019 460.179 347.093 C 460.193 347.076 460.19199999999995 347.059 460.19699999999995 347.041 C 460.31199999999995 347.004 460.4189999999999 346.953 460.53599999999994 346.918 C 459.453 351.144 456.364 354.298 452.337 355.743 z M 450.675 356.233 C 452.344 351.996 455.45300000000003 348.774 459.669 347.234 C 456.82599999999996 350.008 454.048 352.847 451.267 355.683 C 451.139 355.81399999999996 451.13 355.968 451.181 356.09999999999997 C 451.013 356.145 450.846 356.193 450.675 356.233 z M 436.146 359.084 C 439.034 356.723 442.075 354.645 445.25600000000003 352.717 C 443.60900000000004 355.88 440.677 358.14099999999996 437.211 359 C 436.857 359.034 436.5 359.054 436.146 359.084 z M 433.777 359.271 C 433.786 359.262 433.796 359.26 433.805 359.25 C 437.117 355.407 440.872 352.712 445.791 351.573 C 445.747 351.685 445.686 351.787 445.639 351.89799999999997 C 441.76300000000003 353.90599999999995 438.151 356.41099999999994 434.793 359.191 C 434.454 359.215 434.117 359.251 433.777 359.271 z M 437.382 366.895 C 433.543 364.84799999999996 429.657 362.82399999999996 425.71500000000003 360.977 C 426.82500000000005 360.996 427.93500000000006 361.005 429.04600000000005 360.991 C 432.59200000000004 361.899 435.69300000000004 363.849 438.03200000000004 366.837 C 437.813 366.863 437.598 366.877 437.382 366.895 z M 423.541 360.924 C 423.795 360.933 424.05 360.935 424.305 360.94199999999995 C 424.298 361.06499999999994 424.348 361.18799999999993 424.499 361.26599999999996 C 428.39700000000005 363.28999999999996 432.41400000000004 365.14199999999994 436.42400000000004 366.94399999999996 C 431.346 367.057 427.018 364.723 423.541 360.924 z M 419.163 358.109 C 422.021 356.645 424.83 355.061 427.458 353.226 C 425.301 355.861 422.402 357.569 419.163 358.109 z M 416.928 358.293 C 416.209 358.293 415.481 358.245 414.74399999999997 358.13100000000003 C 414.691 358.12300000000005 414.652 358.14700000000005 414.60799999999995 358.16200000000003 C 418.34099999999995 355.184 422.44999999999993 353.377 427.1619999999999 352.94800000000004 C 423.765 354.77 420.414 356.641 416.928 358.293 z M 419.401 365.267 C 416.284 363.358 413.108 361.532 409.927 359.728 C 410.411 359.793 410.894 359.867 411.379 359.927 C 414.489 361.064 417.192 362.794 419.401 365.267 z M 407.34 359.372 C 407.539 359.402 407.739 359.425 407.93899999999996 359.454 C 412.04799999999994 361.858 416.169 364.276 420.37399999999997 366.502 C 420.393 366.512 420.412 366.51300000000003 420.42999999999995 366.519 C 420.49799999999993 366.609 420.57099999999997 366.692 420.638 366.784 C 415.209 366.132 410.998 363.382 407.34 359.372 z M 398.743 356.27 C 398.311 356.18199999999996 397.879 356.089 397.447 356.001 C 397.7 355.93399999999997 397.953 355.86699999999996 398.207 355.79999999999995 C 398.319 355.77099999999996 398.36 355.68899999999996 398.373 355.602 C 398.77799999999996 355.462 399.18399999999997 355.323 399.589 355.183 C 399.932 355.158 400.281 355.155 400.637 355.176 C 400.771 355.18399999999997 400.801 354.962 400.669 354.941 C 400.563 354.924 400.45799999999997 354.93199999999996 400.351 354.91999999999996 C 403.96 353.679 407.574 352.448 411.147 351.109 C 411.147 351.109 411.147 351.109 411.147 351.109 C 411.299 351.11699999999996 411.44599999999997 351.10999999999996 411.599 351.121 C 407.767 354.022 403.485 355.578 398.743 356.27 z M 395.478 355.591 C 400.07300000000004 352.699 404.769 351.046 410.002 351.07800000000003 C 406.027 352.31600000000003 402.08500000000004 353.66900000000004 398.136 354.985 C 398.053 355.01300000000003 398 355.065 397.963 355.125 C 397.399 355.279 396.84700000000004 355.482 396.321 355.763 C 396.32000000000005 355.76399999999995 396.32000000000005 355.765 396.31800000000004 355.76599999999996 C 396.039 355.707 395.758 355.653 395.478 355.591 z M 392.76 357.663 C 396.081 360.038 398.558 363.069 400.041 366.978 C 399.933 366.93600000000004 399.834 366.878 399.728 366.834 C 397.736 363.619 395.45 360.381 392.76 357.663 z" stroke-linecap="round" />
</g>
</svg>