<?xml version="1.0" encoding="UTF-8" standalone="no" ?>
<!DOCTYPE svg PUBLIC "-//W3C//DTD SVG 1.1//EN" "http://www.w3.org/Graphics/SVG/1.1/DTD/svg11.dtd">
<svg xmlns="http://www.w3.org/2000/svg" xmlns:xlink="http://www.w3.org/1999/xlink" version="1.1" width="1080" height="1080" viewBox="0 0 1080 1080" xml:space="preserve">
<desc>Created with Fabric.js 5.2.4</desc>
<defs>
</defs>
<g transform="matrix(1 0 0 1 540 540)" id="382a503f-ee4f-4753-b5dd-4a1104e14a29"  >
<rect style="stroke: none; stroke-width: 1; stroke-dasharray: none; stroke-linecap: butt; stroke-dashoffset: 0; stroke-linejoin: miter; stroke-miterlimit: 4; fill: rgb(255,255,255); fill-rule: nonzero; opacity: 1; visibility: hidden;" vector-effect="non-scaling-stroke"  x="-540" y="-540" rx="0" ry="0" width="1080" height="1080" />
</g>
<g transform="matrix(0 0 0 0 0 0)" id="54751cf2-0aa8-4800-8187-fad3ac2bd0ad"  >
</g>
<g transform="matrix(0.75 0 0 0.75 729.37 540.03)"  >
<path style="stroke: none; stroke-width: 1; stroke-dasharray: none; stroke-linecap: butt; stroke-dashoffset: 0; stroke-linejoin: miter; stroke-miterlimit: 4; fill: rgb(0,0,0); fill-rule: nonzero; opacity: 1;" vector-effect="non-scaling-stroke"  transform=" translate(-2555.15, -760.52)" d="M 2554.807 760.583 C 2555.019 760.545 2555.2309999999998 760.506 2555.4429999999998 760.468 C 2555.544 760.448 2555.642 760.4309999999999 2555.7439999999997 760.411 C 2554.178 760.667 2554.492 760.64 2554.807 760.583 z" stroke-linecap="round" />
</g>
<g transform="matrix(0.75 0 0 0.75 809.72 432.87)"  >
<path style="stroke: none; stroke-width: 1; stroke-dasharray: none; stroke-linecap: butt; stroke-dashoffset: 0; stroke-linejoin: miter; stroke-miterlimit: 4; fill: rgb(0,0,0); fill-rule: nonzero; opacity: 1;" vector-effect="non-scaling-stroke"  transform=" translate(-2662.78, -617.01)" d="M 2662.781 617.159 C 2662.783 617.149 2662.783 617.144 2662.784 617.134 C 2662.786 617.04 2662.783 616.946 2662.782 616.852 C 2662.766 616.888 2662.759 616.985 2662.781 617.159 z" stroke-linecap="round" />
</g>
<g transform="matrix(0.75 0 0 0.75 601.12 572.05)"  >
<path style="stroke: none; stroke-width: 1; stroke-dasharray: none; stroke-linecap: butt; stroke-dashoffset: 0; stroke-linejoin: miter; stroke-miterlimit: 4; fill: rgb(0,0,0); fill-rule: nonzero; opacity: 1;" vector-effect="non-scaling-stroke"  transform=" translate(-2383.4, -803.4)" d="M 2383.359 803.445 C 2383.3869999999997 803.4190000000001 2383.415 803.393 2383.4449999999997 803.363 C 2383.4149999999995 803.389 2383.399 803.4040000000001 2383.374 803.4250000000001 C 2383.369 803.432 2383.364 803.439 2383.359 803.445 z" stroke-linecap="round" />
</g>
<g transform="matrix(0.75 0 0 0.75 601.15 572.02)" id="Layer_1"  >
<polygon style="stroke: none; stroke-width: 1; stroke-dasharray: none; stroke-linecap: butt; stroke-dashoffset: 0; stroke-linejoin: miter; stroke-miterlimit: 4; fill: rgb(0,0,0); fill-rule: nonzero; opacity: 1;" vector-effect="non-scaling-stroke"  points="0,0 0,0 0,0 " />
</g>
<g transform="matrix(4.48 0 0 4.48 376.27 500.12)"  >
<path style="stroke: none; stroke-width: 1; stroke-dasharray: none; stroke-linecap: butt; stroke-dashoffset: 0; stroke-linejoin: miter; stroke-miterlimit: 4; fill: rgb(29,29,27); fill-rule: nonzero; opacity: 1;" vector-effect="non-scaling-stroke"  transform=" translate(-345.94, -202.56)" d="M 390.692 202.32 C 380.777 193.82999999999998 367.479 192.605 355.022 194.851 C 346.48699999999997 196.39 338.329 199.469 330.153 202.267 C 327.291 203.246 323.035 204.957 318.718 206.01999999999998 C 314.671 206.01799999999997 312.06800000000004 201.27999999999997 315.526 198.42499999999998 C 317.015 197.19599999999997 319.225 197.17799999999997 320.594 198.63699999999997 C 322.436 200.59999999999997 319.945 203.97399999999996 317.765 202.18099999999998 C 317.264 201.76899999999998 316.543 202.45399999999998 317.039 202.90699999999998 C 318.787 204.50199999999998 321.72499999999997 203.378 322.337 201.15699999999998 C 323.113 198.343 319.938 196.07699999999997 317.394 196.38 C 314.599 196.712 312.411 199.569 312.803 202.353 C 313.089 204.38400000000001 314.639 205.95000000000002 316.509 206.50400000000002 C 314.254 206.92300000000003 312.045 207.098 310.075 206.824 C 309.59999999999997 203.37300000000002 306.67199999999997 199.94 302.967 200.198 C 302.96 200.166 302.95 200.138 302.943 200.10500000000002 C 302.85699999999997 199.699 302.176 199.782 302.21099999999996 200.204 C 302.21299999999997 200.22400000000002 302.2169999999999 200.24 302.21899999999994 200.26000000000002 C 302.03899999999993 200.229 301.85499999999996 200.28600000000003 301.7679999999999 200.48800000000003 C 300.6069999999999 203.17800000000003 300.60599999999994 207.19200000000004 303.33699999999993 208.985 C 305.2559999999999 210.245 308.13699999999994 209.98000000000002 309.3929999999999 207.996 C 317.98799999999994 209.376 331.7849999999999 203.196 336.6839999999999 201.523 C 337.1089999999999 201.378 337.5379999999999 201.234 337.9669999999999 201.09 C 335.0229999999999 203.372 333.00299999999993 206.709 332.29099999999994 210.513 C 332.22399999999993 210.87300000000002 332.4479999999999 211.26000000000002 332.8539999999999 211.251 C 339.2559999999999 211.114 344.30499999999995 205.733 344.2009999999999 199.39100000000002 C 344.1989999999999 199.29100000000003 344.1659999999999 199.20900000000003 344.1199999999999 199.14000000000001 C 348.0879999999999 197.965 352.16899999999987 196.94400000000002 356.2719999999999 196.25300000000001 C 354.5739999999999 197.144 353.21299999999985 198.477 352.99399999999986 200.58100000000002 C 352.64799999999985 203.907 355.3369999999999 205.29800000000003 358.29899999999986 204.78900000000002 C 360.9279999999999 204.33700000000002 364.3869999999999 201.91600000000003 362.6589999999999 198.83800000000002 C 361.49599999999987 196.76700000000002 358.1879999999999 197.35800000000003 357.9809999999999 199.75700000000003 C 357.9159999999999 200.51100000000002 359.04899999999986 200.48000000000005 359.1409999999999 199.75700000000003 C 359.4149999999999 197.60700000000003 362.2209999999999 199.17300000000003 361.7269999999999 201.03100000000003 C 361.4149999999999 202.20400000000004 360.35599999999994 202.88000000000002 359.2779999999999 203.26100000000002 C 357.63499999999993 203.842 355.15199999999993 204.16700000000003 354.3629999999999 202.19800000000004 C 352.97199999999987 198.73100000000002 356.8699999999999 196.84200000000004 359.5869999999999 195.77100000000004 C 370.3219999999999 194.46700000000004 381.03199999999987 195.76800000000006 390.06599999999986 202.94500000000005 C 390.503 203.294 391.131 202.696 390.692 202.32 z M 303.541 207.9 C 301.769 206.3 301.849 203.78300000000002 302.413 201.64100000000002 C 303.169 205.37300000000002 305.586 207.211 308.826 207.88100000000003 C 307.492 209.31 304.986 209.204 303.541 207.9 z M 303.029 200.436 C 306.075 201.346 308.714 203.435 309.222 206.673 C 306.246 206.031 303.935 204.208 303.029 200.436 z M 336.04 209.486 C 338.73400000000004 207.029 341.058 204.179 343.105 201.16 C 342.462 204.967 339.636 208.198 336.04 209.486 z M 335.188 209.109 C 334.97499999999997 209.32500000000002 335.054 209.59 335.234 209.733 C 334.698 209.877 334.149 209.978 333.589 210.032 C 334.589 205.888 337.19 202.423 340.76 200.17700000000002 C 341.543 199.92700000000002 342.33 199.67900000000003 343.123 199.43900000000002 C 340.835 202.993 338.158 206.103 335.188 209.109 z" stroke-linecap="round" />
</g>
<g transform="matrix(4.48 0 0 4.48 703.73 500.12)"  >
<path style="stroke: none; stroke-width: 1; stroke-dasharray: none; stroke-linecap: butt; stroke-dashoffset: 0; stroke-linejoin: miter; stroke-miterlimit: 4; fill: rgb(29,29,27); fill-rule: nonzero; opacity: 1;" vector-effect="non-scaling-stroke"  transform=" translate(-419.03, -202.56)" d="M 374.898 202.946 C 383.93100000000004 195.769 394.64200000000005 194.46699999999998 405.37600000000003 195.772 C 408.093 196.843 411.99100000000004 198.732 410.6 202.19899999999998 C 409.81100000000004 204.16799999999998 407.32800000000003 203.84199999999998 405.685 203.26199999999997 C 404.607 202.88099999999997 403.549 202.20399999999998 403.236 201.03199999999998 C 402.74199999999996 199.17399999999998 405.548 197.60799999999998 405.822 199.75799999999998 C 405.914 200.481 407.047 200.51199999999997 406.982 199.75799999999998 C 406.77500000000003 197.35899999999998 403.46700000000004 196.76699999999997 402.30400000000003 198.83899999999997 C 400.576 201.91699999999997 404.03400000000005 204.33799999999997 406.66400000000004 204.78999999999996 C 409.62700000000007 205.29899999999995 412.31600000000003 203.90799999999996 411.97 200.58199999999997 C 411.75100000000003 198.47799999999995 410.391 197.14499999999995 408.692 196.25399999999996 C 412.795 196.94499999999996 416.87600000000003 197.96699999999996 420.844 199.14099999999996 C 420.798 199.21099999999996 420.765 199.29299999999995 420.763 199.39199999999997 C 420.659 205.73399999999998 425.70799999999997 211.11499999999998 432.10999999999996 211.25199999999995 C 432.51499999999993 211.26099999999994 432.73999999999995 210.87399999999997 432.67299999999994 210.51399999999995 C 431.9599999999999 206.70999999999995 429.93999999999994 203.37299999999996 426.99699999999996 201.09099999999995 C 427.42599999999993 201.23499999999996 427.85499999999996 201.37899999999996 428.28 201.52399999999994 C 433.179 203.19699999999995 446.97499999999997 209.37699999999995 455.57099999999997 207.99699999999996 C 456.828 209.98099999999997 459.70799999999997 210.24599999999995 461.62699999999995 208.98599999999996 C 464.35799999999995 207.19299999999996 464.35699999999997 203.17999999999995 463.19599999999997 200.48899999999998 C 463.109 200.28699999999998 462.924 200.23 462.74499999999995 200.26099999999997 C 462.74699999999996 200.24099999999996 462.7509999999999 200.22499999999997 462.75299999999993 200.20499999999996 C 462.7869999999999 199.78299999999996 462.1069999999999 199.69999999999996 462.0209999999999 200.10599999999997 C 462.0139999999999 200.13899999999995 462.0039999999999 200.16699999999997 461.9969999999999 200.19899999999996 C 458.2919999999999 199.94099999999995 455.3639999999999 203.37399999999997 454.8889999999999 206.82499999999996 C 452.91899999999987 207.09799999999996 450.7099999999999 206.92299999999997 448.45499999999987 206.50499999999997 C 450.3249999999999 205.94999999999996 451.8749999999999 204.38399999999996 452.1609999999999 202.35399999999996 C 452.5529999999999 199.56999999999996 450.3649999999999 196.71299999999997 447.5699999999999 196.38099999999994 C 445.0259999999999 196.07899999999995 441.8509999999999 198.34399999999994 442.6269999999999 201.15799999999993 C 443.2389999999999 203.37899999999993 446.1779999999999 204.50299999999993 447.9249999999999 202.90799999999993 C 448.4209999999999 202.45599999999993 447.6999999999999 201.76999999999992 447.1989999999999 202.18199999999993 C 445.0189999999999 203.97399999999993 442.5279999999999 200.60099999999994 444.3699999999999 198.63799999999992 C 445.7389999999999 197.17899999999992 447.9499999999999 197.19799999999992 449.4379999999999 198.42599999999993 C 452.89499999999987 201.28099999999992 450.29199999999986 206.01899999999992 446.24599999999987 206.02099999999993 C 441.9299999999999 204.95899999999992 437.6729999999999 203.24799999999993 434.81099999999986 202.26799999999992 C 426.63399999999984 199.4699999999999 418.4759999999999 196.38999999999993 409.9419999999999 194.85199999999992 C 397.4849999999999 192.6059999999999 384.1869999999999 193.83099999999993 374.2719999999999 202.3209999999999 C 373.832 202.696 374.46 203.294 374.898 202.946 z M 456.137 207.881 C 459.377 207.211 461.794 205.372 462.55 201.641 C 463.11400000000003 203.783 463.194 206.29999999999998 461.422 207.89999999999998 C 459.977 209.204 457.471 209.31 456.137 207.881 z M 455.742 206.673 C 456.249 203.435 458.889 201.346 461.935 200.436 C 461.028 204.208 458.717 206.031 455.742 206.673 z M 421.858 201.16 C 423.90500000000003 204.178 426.229 207.029 428.923 209.486 C 425.327 208.198 422.501 204.967 421.858 201.16 z M 421.84 199.437 C 422.633 199.67800000000003 423.41999999999996 199.925 424.203 200.175 C 427.77299999999997 202.42200000000003 430.37399999999997 205.88600000000002 431.37399999999997 210.03 C 430.81399999999996 209.976 430.265 209.876 429.729 209.731 C 429.909 209.588 429.988 209.323 429.775 209.107 C 426.805 206.103 424.128 202.993 421.84 199.437 z" stroke-linecap="round" />
</g>
</svg>