<?xml version="1.0" encoding="UTF-8" standalone="no" ?>
<!DOCTYPE svg PUBLIC "-//W3C//DTD SVG 1.1//EN" "http://www.w3.org/Graphics/SVG/1.1/DTD/svg11.dtd">
<svg xmlns="http://www.w3.org/2000/svg" xmlns:xlink="http://www.w3.org/1999/xlink" version="1.1" width="1080" height="1080" viewBox="0 0 1080 1080" xml:space="">
<desc>Created with Fabric.js 5.2.4</desc>
<defs>
</defs>
<g transform="matrix(1 0 0 1 540 540)" id="15f901f0-20df-4a32-a834-8e1f64f37db0"  >
<rect style="stroke: none; stroke-width: 1; stroke-dasharray: none; stroke-linecap: butt; stroke-dashoffset: 0; stroke-linejoin: miter; stroke-miterlimit: 4; fill: rgb(255,255,255); fill-rule: nonzero; opacity: 1; visibility: hidden;" vector-effect="non-scaling-stroke"  x="-540" y="-540" rx="0" ry="0" width="1080" height="1080" />
</g>
<g transform="matrix(1 0 0 1 540 540)" id="29227a19-5bc2-4ded-a0dd-cb799f5a44b6"  >
</g>
<g transform="matrix(8.27 0 0 8.27 540.02 375.24)"  >
<path style="stroke: none; stroke-width: 1; stroke-dasharray: none; stroke-linecap: butt; stroke-dashoffset: 0; stroke-linejoin: miter; stroke-miterlimit: 4; fill: #fff; fill-rule: nonzero; opacity: 1;" vector-effect="non-scaling-stroke"  transform=" translate(-85.04, -132.48)" d="M 89.615 132.837 L 80.469 132.837 C 80.27199999999999 132.837 80.112 132.677 80.112 132.48 L 80.112 132.48 C 80.112 132.283 80.27199999999999 132.123 80.469 132.123 L 89.615 132.123 C 89.812 132.123 89.972 132.283 89.972 132.48 L 89.972 132.48 C 89.973 132.677 89.813 132.837 89.615 132.837 z" stroke-linecap="round" />
</g>
<g transform="matrix(8.27 0 0 8.27 540.1 540)"  >
<path style="stroke: #fff; stroke-width: 1; stroke-dasharray: none; stroke-linecap: round; stroke-dashoffset: 0; stroke-linejoin: round; stroke-miterlimit: 10; fill: none; fill-rule: nonzero; opacity: 1;" vector-effect="non-scaling-stroke"  transform=" translate(-85.05, -152.39)" d="M 94.755 173.903 L 75.352 173.903 C 74.646 173.903 74.074 173.331 74.074 172.624 L 74.074 132.163 C 74.074 131.45700000000002 74.646 130.88400000000001 75.352 130.88400000000001 L 94.755 130.88400000000001 C 95.461 130.88400000000001 96.033 131.45600000000002 96.033 132.163 L 96.033 172.62400000000002 C 96.034 173.331 95.461 173.903 94.755 173.903 z" stroke-linecap="round" />
</g>
<g transform="matrix(8.27 0 0 8.27 540.06 533.71)"  >
<path style="stroke: #fff; stroke-width: 1; stroke-dasharray: none; stroke-linecap: round; stroke-dashoffset: 0; stroke-linejoin: round; stroke-miterlimit: 10; fill: none; fill-rule: nonzero; opacity: 1;" vector-effect="non-scaling-stroke"  transform=" translate(-85.05, -151.64)" d="M 93.151 168.956 L 76.957 168.956 C 76.25099999999999 168.956 75.67899999999999 168.384 75.67899999999999 167.677 L 75.67899999999999 135.59699999999998 C 75.67899999999999 134.891 76.25099999999999 134.31799999999998 76.957 134.31799999999998 L 93.151 134.31799999999998 C 93.857 134.31799999999998 94.429 134.89 94.429 135.59699999999998 L 94.429 167.67699999999996 C 94.429 168.383 93.857 168.956 93.151 168.956 z" stroke-linecap="round" />
</g>
<g transform="matrix(8.27 0 0 8.27 673.06 531.66)"  >
<path style="stroke: #fff; stroke-width: 1; stroke-dasharray: none; stroke-linecap: round; stroke-dashoffset: 0; stroke-linejoin: round; stroke-miterlimit: 10; fill: none; fill-rule: nonzero; opacity: 1;" vector-effect="non-scaling-stroke"  transform=" translate(-101.12, -151.39)" d="M 99.511 145.065 C 101.466 146.549 102.729 148.898 102.729 151.542 C 102.729 154.00900000000001 101.63 156.218 99.895 157.709" stroke-linecap="round" />
</g>
<g transform="matrix(8.27 0 0 8.27 697.83 531.7)"  >
<path style="stroke: #fff; stroke-width: 1; stroke-dasharray: none; stroke-linecap: round; stroke-dashoffset: 0; stroke-linejoin: round; stroke-miterlimit: 10; fill: none; fill-rule: nonzero; opacity: 1;" vector-effect="non-scaling-stroke"  transform=" translate(-104.12, -151.39)" d="M 101.677 141.79 C 104.64500000000001 144.042 106.56200000000001 147.608 106.56200000000001 151.62199999999999 C 106.56200000000001 155.36599999999999 104.89300000000001 158.72099999999998 102.25900000000001 160.98299999999998" stroke-linecap="round" />
</g>
<g transform="matrix(8.27 0 0 8.27 406.97 531.66)"  >
<path style="stroke: #fff; stroke-width: 1; stroke-dasharray: none; stroke-linecap: round; stroke-dashoffset: 0; stroke-linejoin: round; stroke-miterlimit: 10; fill: none; fill-rule: nonzero; opacity: 1;" vector-effect="non-scaling-stroke"  transform=" translate(-68.97, -151.39)" d="M 70.574 145.065 C 68.619 146.549 67.356 148.898 67.356 151.542 C 67.356 154.00900000000001 68.455 156.218 70.19 157.709" stroke-linecap="round" />
</g>
<g transform="matrix(8.27 0 0 8.27 382.17 531.7)"  >
<path style="stroke: #fff; stroke-width: 1; stroke-dasharray: none; stroke-linecap: round; stroke-dashoffset: 0; stroke-linejoin: round; stroke-miterlimit: 10; fill: none; fill-rule: nonzero; opacity: 1;" vector-effect="non-scaling-stroke"  transform=" translate(-65.97, -151.39)" d="M 68.408 141.79 C 65.44 144.042 63.523 147.608 63.523 151.62199999999999 C 63.523 155.36599999999999 65.19200000000001 158.72099999999998 67.82600000000001 160.98299999999998" stroke-linecap="round" />
</g>
</svg>